<!DOCTYPE svg PUBLIC "-//W3C//DTD SVG 1.1//EN" "http://www.w3.org/Graphics/SVG/1.1/DTD/svg11.dtd">
<!-- Uploaded to: SVG Repo, www.svgrepo.com, Transformed by: SVG Repo Mixer Tools -->
<svg fill="#ffffff" version="1.1" id="Layer_1" xmlns="http://www.w3.org/2000/svg" xmlns:xlink="http://www.w3.org/1999/xlink" viewBox="0 0 512 512" xml:space="preserve" width="800px" height="800px" stroke="#ffffff">
<g id="SVGRepo_bgCarrier" stroke-width="0"/>
<g id="SVGRepo_tracerCarrier" stroke-linecap="round" stroke-linejoin="round"/>
<g id="SVGRepo_iconCarrier"> <g> <g> <path d="M60.587,211.7C27.179,211.7,0,238.879,0,272.287v136.584h43.892v24.779h33.391v-24.779h43.892V272.287 C121.174,238.879,93.994,211.7,60.587,211.7z"/> </g> </g> <g> <g> <path d="M451.413,211.7c-33.408,0-60.587,27.179-60.587,60.587v136.584h43.892v24.779h33.391v-24.779H512V272.287 C512,238.879,484.821,211.7,451.413,211.7z"/> </g> </g> <g> <g> <rect x="154.568" y="297.739" width="202.874" height="111.126"/> </g> </g> <g> <g> <path d="M385.312,78.35H126.687c-45.654,0-82.796,37.142-82.796,82.796v18.678c5.423-0.977,10.996-1.515,16.696-1.515 c49.143,0,89.571,37.924,93.618,86.039h203.589c4.047-48.115,44.475-86.039,93.618-86.039c5.701-0.001,11.274,0.538,16.697,1.514 v-18.677C468.108,115.493,430.966,78.35,385.312,78.35z"/> </g> </g> </g>
</svg>